<?xml version="1.0" encoding="utf-8"?>
<!-- Generator: Adobe Illustrator 19.0.0, SVG Export Plug-In . SVG Version: 6.00 Build 0)  -->
<svg version="1.1" id="Layer_1" xmlns="http://www.w3.org/2000/svg" xmlns:xlink="http://www.w3.org/1999/xlink" x="0px" y="0px"
	 viewBox="0 0 200 200" style="enable-background:new 0 0 200 200;" xml:space="preserve">
<style type="text/css">
	.st0{opacity:0.7;}
	.st1{fill:none;stroke:#000000;stroke-width:5;stroke-miterlimit:10;}
</style>
<g>
	<g id="XMLID_2_" class="st0">
		<g id="XMLID_18_">
			<polyline id="XMLID_21_" class="st1" points="76.6,175 34.4,175 34.4,25 103,25 			"/>
			<g id="XMLID_19_">
				<path id="XMLID_20_" d="M75.7,44.2c-0.6-0.9-0.3-2.2,0.6-2.8L102.1,25L76.3,8.6c-0.9-0.6-1.2-1.8-0.6-2.8
					c0.6-0.9,1.8-1.2,2.8-0.6l28.5,18.1c0.6,0.4,0.9,1,0.9,1.7s-0.3,1.3-0.9,1.7L78.5,44.8c-0.3,0.2-0.7,0.3-1.1,0.3
					C76.7,45.1,76.1,44.8,75.7,44.2z"/>
			</g>
		</g>
	</g>
	<g id="XMLID_1_" class="st0">
		<g id="XMLID_13_">
			<polyline id="XMLID_16_" class="st1" points="123.4,25 165.6,25 165.6,175 97,175 			"/>
			<g id="XMLID_14_">
				<path id="XMLID_15_" d="M124.3,155.8c0.6,0.9,0.3,2.2-0.6,2.8L97.9,175l25.8,16.4c0.9,0.6,1.2,1.8,0.6,2.8
					c-0.6,0.9-1.8,1.2-2.8,0.6l-28.5-18.1c-0.6-0.4-0.9-1-0.9-1.7s0.3-1.3,0.9-1.7l28.5-18.1c0.3-0.2,0.7-0.3,1.1-0.3
					C123.3,154.9,123.9,155.2,124.3,155.8z"/>
			</g>
		</g>
	</g>
</g>
</svg>
