<?xml version="1.0" encoding="utf-8"?>
<!-- Generator: Adobe Illustrator 19.0.0, SVG Export Plug-In . SVG Version: 6.00 Build 0)  -->
<svg version="1.1"
	 id="Layer_1" xmlns:dc="http://purl.org/dc/elements/1.1/" xmlns:cc="http://creativecommons.org/ns#" xmlns:rdf="http://www.w3.org/1999/02/22-rdf-syntax-ns#" xmlns:svg="http://www.w3.org/2000/svg" xmlns:sodipodi="http://sodipodi.sourceforge.net/DTD/sodipodi-0.dtd" xmlns:inkscape="http://www.inkscape.org/namespaces/inkscape"
	 xmlns="http://www.w3.org/2000/svg" xmlns:xlink="http://www.w3.org/1999/xlink" x="0px" y="0px" viewBox="-151 1 200 200"
	 style="enable-background:new -151 1 200 200;" xml:space="preserve">
<style type="text/css">
	.st0{fill:#444444;}
</style>
<g transform="translate(0,-1004.3622)">
	<path class="st0" d="M-22.5,1040c-1.9,0-3.6,1.3-4,3.2l-3,13.2h-115.5c-2.3,0-4.1,1.8-4.1,4.1v73.5c0,2.3,1.8,4.1,4.1,4.1h20.4
		c1.4,0,2.6-0.7,3.4-1.8l6.9-10.4h34.5v8.2c0,2.3,1.8,4.1,4.1,4.1h32.6c1.9,0,3.6-1.3,4-3.2l19.7-86.7h17.1c2.3,0,4.1-1.8,4.1-4
		c0-2.3-1.8-4.1-4-4.1c0,0-0.1,0-0.1,0L-22.5,1040L-22.5,1040z M-142.8,1062.5h114.5l-15.9,69.3h-29.3v-8.2c0-2.3,0.2-4.1-2.1-4.1
		h-40.8c-1.4,0-2.6,0.7-3.4,1.8l-6.9,10.4h-16.1V1062.5z"/>
	<path class="st0" d="M-10.2,1056.4c-1.9,0-3.6,1.3-4,3.2l-16.3,73.4c-0.5,2.2,0.9,4.4,3.1,4.9c0.3,0.1,0.6,0.1,0.9,0.1h12.3
		c1.4,0,2.6-0.7,3.4-1.8l7-10.4h30.5v7.5c-0.2,1.3,0.2,2.6,1.1,3.5c0,0,0.1,0.1,0.1,0.1c0.9,0.9,2.2,1.3,3.5,1.1h11.6
		c2.3,0,4.1-1.8,4.1-4.1v-73.4c0-2.3-1.8-4.1-4.1-4.1L-10.2,1056.4L-10.2,1056.4z M-6.9,1062.5h47.7v69.3h-8.1v-8.2
		c0-2.3,0.2-4.1-2.1-4.1H-6.1c-1.4,0-2.6,0.7-3.4,1.8l-6,9.4h-9l15.5-68.3L-6.9,1062.5z"/>
	<path class="st0" d="M-100,1129.9c-11.2,0-20.4,9.2-20.4,20.4s9.2,20.4,20.4,20.4s20.4-9.2,20.4-20.4S-88.8,1129.9-100,1129.9z
		 M-100,1138c6.8,0,12.3,5.4,12.3,12.3s-5.4,12.3-12.3,12.3s-12.3-5.4-12.3-12.3S-106.8,1138-100,1138z"/>
	<path class="st0" d="M10.3,1129.9c-11.2,0-20.4,9.2-20.4,20.4s9.2,20.4,20.4,20.4s20.4-9.2,20.4-20.4S21.5,1129.9,10.3,1129.9z
		 M10.3,1138c6.8,0,12.3,5.4,12.3,12.3s-5.4,12.3-12.3,12.3S-2,1157.1-2,1150.3S3.4,1138,10.3,1138z"/>
	<path class="st0" d="M2.1,1068.6c-2,0-3.7,1.4-4,3.4l-4.1,24.5c-0.4,2.2,1.1,4.3,3.3,4.7c0.2,0,0.5,0.1,0.7,0.1h32.7
		c2.3,0,4.1-1.8,4.1-4.1v-24.5c0-2.3-1.8-4.1-4.1-4.1H2.1z M5.5,1076.8h21v16.3H2.8L5.5,1076.8z"/>
</g>
</svg>
