<?xml version="1.0" encoding="utf-8"?>
<!-- Generator: Adobe Illustrator 19.0.0, SVG Export Plug-In . SVG Version: 6.00 Build 0)  -->
<svg version="1.1" id="Layer_1" xmlns="http://www.w3.org/2000/svg" xmlns:xlink="http://www.w3.org/1999/xlink" x="0px" y="0px"
	 viewBox="70 -10 200 200" style="enable-background:new 70 -10 200 200;" xml:space="preserve">
<style type="text/css">
	.st0{fill:#444444;}
</style>
<g id="XMLID_84_">
	<g id="XMLID_85_">
		<g id="XMLID_98_">
			<path id="XMLID_355_" class="st0" d="M170-3c24.4,0,43.4,10.9,51.9,29.9c9.6,21.4,4.5,48.8-12.6,68.1
				C191,115.5,191,118.5,191,120.2c0,0.8-0.6,1.6-1.4,1.8c-25.1,6.8-37.4,10-38.7,10.1h-0.1l0,0c-2-0.1-2.8-1.8-4.2-6.8v-0.1
				c-1.9-6.8-5-18.1-15.8-30.2c-17.2-19.3-22.3-46.7-12.7-68.1C126.6,7.9,145.5-3,170-3 M170-6c-25.7,0-45.6,11.5-54.6,31.6
				c-10.1,22.5-4.8,51.2,13.1,71.4c10.4,11.7,13.4,22.6,15.1,29.1c1.2,4.5,2.4,8.8,7,9c0.1,0,0.2,0,0.2,0c0.8,0,2.1-0.1,39.5-10.2
				c2.1-0.6,3.6-2.5,3.6-4.7c0-2.3,5.9-10.2,17.5-23.2c17.9-20.2,23.2-48.9,13.1-71.3C215.6,5.5,195.7-6,170-6L170-6z"/>
		</g>
		<g id="XMLID_95_">
			<path id="XMLID_351_" class="st0" d="M192.8,173.2c0.9,0,1.6,0.6,1.8,1.4c0.3,1-0.3,2-1.3,2.3l-24,6.1c-0.2,0.1-0.4,0.1-0.5,0.1
				c-0.8,0-1.6-0.6-1.8-1.4c-0.1-0.5-0.1-1,0.2-1.4s0.7-0.7,1.1-0.9l24.1-6.1C192.5,173.2,192.7,173.2,192.8,173.2 M192.8,170.2
				c-0.4,0-0.8,0-1.2,0.1l-24.1,6.1c-2.6,0.7-4.2,3.3-3.5,5.9c0.6,2.2,2.5,3.7,4.7,3.7c0.4,0,0.8-0.1,1.2-0.1l24.1-6.1
				c2.6-0.7,4.2-3.3,3.5-5.9C197,171.6,195,170.2,192.8,170.2L192.8,170.2z"/>
		</g>
		<g id="XMLID_92_">
			<path id="XMLID_344_" class="st0" d="M192.9,145.8c0.8,0,1.6,0.6,1.8,1.4c0.3,1-0.3,2-1.3,2.3l-42.9,11.1c-0.2,0-0.3,0.1-0.5,0.1
				c-0.8,0-1.6-0.6-1.8-1.4c-0.1-0.5-0.1-1,0.2-1.4c0.3-0.4,0.7-0.7,1.1-0.9l42.9-11.1C192.6,145.8,192.7,145.8,192.9,145.8
				 M192.9,142.8c-0.4,0-0.8,0.1-1.2,0.2l-42.9,11.1c-2.6,0.7-4.2,3.3-3.5,5.9c0.6,2.2,2.5,3.6,4.7,3.6c0.4,0,0.8-0.1,1.2-0.2
				l42.9-11.1c2.6-0.7,4.1-3.3,3.5-5.9C197,144.2,195,142.8,192.9,142.8L192.9,142.8z"/>
		</g>
		<g id="XMLID_89_">
			<path id="XMLID_302_" class="st0" d="M192.9,159.6c0.8,0,1.6,0.6,1.8,1.4c0.3,1-0.3,2-1.3,2.3l-42.9,11.1
				c-0.2,0.1-0.4,0.1-0.5,0.1c-0.8,0-1.6-0.6-1.8-1.4c-0.1-0.5-0.1-1,0.2-1.4c0.3-0.4,0.7-0.7,1.1-0.9l42.9-11.1
				C192.6,159.7,192.7,159.6,192.9,159.6 M192.9,156.6c-0.4,0-0.8,0.1-1.2,0.2l-42.9,11.1c-2.6,0.7-4.2,3.3-3.5,5.9
				c0.6,2.2,2.5,3.6,4.7,3.6c0.4,0,0.8-0.1,1.2-0.2l42.9-11.1c2.6-0.7,4.1-3.3,3.5-5.9C197,158.1,195,156.6,192.9,156.6L192.9,156.6
				z"/>
		</g>
		<g id="XMLID_86_">
			<path id="XMLID_298_" class="st0" d="M192.9,131.9c0.8,0,1.6,0.6,1.8,1.4c0.3,1-0.3,2-1.3,2.3l-42.9,11.1c-0.1,0-0.3,0.1-0.5,0.1
				c-0.8,0-1.6-0.6-1.8-1.4c-0.1-0.5-0.1-1,0.2-1.4c0.3-0.4,0.7-0.7,1.1-0.9l42.9-11.1C192.6,131.9,192.7,131.9,192.9,131.9
				 M192.9,128.9c-0.4,0-0.8,0.1-1.2,0.2l-42.9,11.1c-2.6,0.7-4.2,3.3-3.5,5.9c0.6,2.2,2.5,3.6,4.7,3.6c0.4,0,0.8,0,1.2-0.2
				l42.9-11.1c2.6-0.7,4.1-3.3,3.5-5.9C197,130.4,195,128.9,192.9,128.9L192.9,128.9z"/>
		</g>
	</g>
</g>
</svg>
