<?xml version="1.0" encoding="utf-8"?>
<!-- Generator: Adobe Illustrator 19.0.0, SVG Export Plug-In . SVG Version: 6.00 Build 0)  -->
<svg version="1.1" id="Layer_1" xmlns="http://www.w3.org/2000/svg" xmlns:xlink="http://www.w3.org/1999/xlink" x="0px" y="0px"
	 viewBox="70 -10 200 200" style="enable-background:new 70 -10 200 200;" xml:space="preserve">
<style type="text/css">
	.st0{fill:none;stroke:#444444;stroke-width:3;stroke-miterlimit:10;}
</style>
<g id="XMLID_115_">
	<path id="XMLID_122_" class="st0" d="M207.7,121.7c-4.4-6.7-9.6-11.1-17.2-13.6c0,0-5.7-2.9-20.6-2.9c-14.9,0-20.6,2.9-20.6,2.9
		c-7.5,2.5-12.8,6.9-17.2,13.6c-1.7,2.7-2.7,8-2.7,10.9c0,0.7,0,1.6,0,2.5v4.9v-3.4c0,5.4,3.7,9.8,8.3,9.8H202
		c4.6,0,8.3-4.4,8.3-9.8v3.4v-5c0-0.9,0-1.7,0-2.5C210.4,129.7,209.4,124.4,207.7,121.7 M147.3,67.8c0,12.6,7.9,31.1,22.7,31.1
		c14.5,0,22.7-18.5,22.7-31.1S182.6,44.9,170,44.9C157.4,45,147.3,55.2,147.3,67.8"/>
	<g id="XMLID_119_">
		<path id="XMLID_121_" class="st0" d="M144.9,102.3c-3.6-4.6-8-7.8-13.9-9.8c0,0-5.3-2.7-19.2-2.7c-13.9,0-19.2,2.7-19.2,2.7
			c-7,2.3-12,6.4-16,12.7c-1.6,2.5-2.5,7.5-2.6,10.2c0,0.7,0,1.5,0,2.3v1.4c0,5.1,3.5,9.2,7.7,9.2h38.8c0.6-3.2,1.6-6.8,2.9-8.9
			C129,111,135.6,105.5,144.9,102.3z"/>
		<path id="XMLID_120_" class="st0" d="M111.8,84.1c13.6,0,21.2-17.4,21.2-29.1c0-11.8-9.5-21.4-21.2-21.4S90.6,43.2,90.6,55
			C90.6,66.7,98,84.1,111.8,84.1z"/>
	</g>
	<g id="XMLID_116_">
		<path id="XMLID_118_" class="st0" d="M195.1,102.3c3.6-4.6,8-7.8,13.9-9.8c0,0,5.3-2.7,19.2-2.7s19.2,2.7,19.2,2.7
			c7,2.3,12,6.4,16,12.7c1.6,2.5,2.5,7.5,2.6,10.2c0,0.7,0,1.5,0,2.3v1.4c0,5.1-3.5,9.2-7.7,9.2h-38.8c-0.6-3.2-1.6-6.8-2.9-8.9
			C211,111,204.4,105.5,195.1,102.3z"/>
		<path id="XMLID_117_" class="st0" d="M228.2,84.1C214.6,84.1,207,66.7,207,55c0-11.8,9.5-21.4,21.2-21.4s21.2,9.6,21.2,21.4
			C249.4,66.7,242,84.1,228.2,84.1z"/>
	</g>
</g>
</svg>
