<?xml version="1.0" encoding="utf-8"?>
<!-- Generator: Adobe Illustrator 19.0.0, SVG Export Plug-In . SVG Version: 6.00 Build 0)  -->
<svg version="1.1" id="Layer_1" xmlns="http://www.w3.org/2000/svg" xmlns:xlink="http://www.w3.org/1999/xlink" x="0px" y="0px"
	 viewBox="70 -10 200 200" style="enable-background:new 70 -10 200 200;" xml:space="preserve">
<style type="text/css">
	.st0{fill:none;stroke:#444444;stroke-width:3;stroke-miterlimit:10;}
</style>
<path id="XMLID_105_" class="st0" d="M170,110.1c-19.6,0-35.6-16-35.6-35.6s16-35.6,35.6-35.6s35.6,16,35.6,35.6
	S189.6,110.1,170,110.1z"/>
<path id="XMLID_103_" class="st0" d="M110,164.9C87.1,146.6,74,119.3,74,90c0-52.9,43.1-96,96-96s96,43.1,96,96
	c0,29.3-13.1,56.6-36,74.9l0,0c-17.2,13.8-38,21.1-60,21.1S127.2,178.7,110,164.9z"/>
<path id="XMLID_83_" class="st0" d="M103.5,160.1c9-29,35.6-48.8,66.5-48.8c30.8,0,57.4,19.8,66.5,48.8"/>
</svg>
