<?xml version="1.0" encoding="utf-8"?>
<!-- Generator: Adobe Illustrator 19.0.0, SVG Export Plug-In . SVG Version: 6.00 Build 0)  -->
<svg version="1.1" id="Instagram" xmlns="http://www.w3.org/2000/svg" xmlns:xlink="http://www.w3.org/1999/xlink" x="0px" y="0px"
	 viewBox="-255 347 100 100" style="enable-background:new -255 347 100 100;" xml:space="preserve">
<style type="text/css">
	.st0{fill:none;stroke:#F37D39;stroke-miterlimit:10;}
	.st1{fill:#F37D39;}
</style>
<circle class="st0" cx="-205.1" cy="397" r="48"/>
<path class="st1" d="M-194.1,372.1h-22.1c-7.7,0-14,6.3-14,13.9v22.1c0,7.7,6.3,13.9,13.9,13.9h22.2c7.7,0,13.9-6.3,13.9-13.9V386
	C-180.2,378.3-186.5,372.1-194.1,372.1z M-184.3,408.1c0,5.4-4.4,9.8-9.8,9.8h-22.1c-5.4,0-9.8-4.4-9.8-9.8V386
	c0-5.4,4.4-9.8,9.8-9.8h22.1c5.4,0,9.8,4.4,9.8,9.8V408.1z"/>
<path class="st1" d="M-205.2,384.1c-7.1,0-12.9,5.8-12.9,12.9s5.8,12.9,12.9,12.9c7.1,0,12.9-5.8,12.9-12.9
	C-192.2,390-198,384.1-205.2,384.1z M-205.2,405.9c-4.9,0-8.8-4-8.8-8.8s4-8.8,8.8-8.8c4.8,0,8.8,4,8.8,8.8
	S-200.3,405.9-205.2,405.9z"/>
<circle class="st1" cx="-191.9" cy="383.9" r="3.3"/>
</svg>
