<?xml version="1.0" encoding="utf-8"?>
<!-- Generator: Adobe Illustrator 19.0.0, SVG Export Plug-In . SVG Version: 6.00 Build 0)  -->
<svg version="1.1" id="Instagram" xmlns="http://www.w3.org/2000/svg" xmlns:xlink="http://www.w3.org/1999/xlink" x="0px" y="0px"
	 viewBox="-255 347 100 100" style="enable-background:new -255 347 100 100;" xml:space="preserve">
<style type="text/css">
	.st0{fill:none;stroke:#000000;stroke-miterlimit:10;}
</style>
<circle class="st0" cx="-205" cy="397" r="48"/>
<path d="M-194,372.1h-22.1c-7.7,0-14,6.3-14,13.9v22.1c0,7.7,6.3,13.9,13.9,13.9h22.2c7.7,0,13.9-6.3,13.9-13.9V386
	C-180.1,378.3-186.4,372.1-194,372.1z M-184.2,408.1c0,5.4-4.4,9.8-9.8,9.8h-22.1c-5.4,0-9.8-4.4-9.8-9.8V386c0-5.4,4.4-9.8,9.8-9.8
	h22.1c5.4,0,9.8,4.4,9.8,9.8V408.1z"/>
<path d="M-205.1,384.1c-7.1,0-12.9,5.8-12.9,12.9c0,7.1,5.8,12.9,12.9,12.9s12.9-5.8,12.9-12.9C-192.1,390-197.9,384.1-205.1,384.1z
	 M-205.1,405.9c-4.9,0-8.8-4-8.8-8.8s4-8.8,8.8-8.8s8.8,4,8.8,8.8S-200.2,405.9-205.1,405.9z"/>
<circle cx="-191.8" cy="383.9" r="3.3"/>
</svg>
