<?xml version="1.0" encoding="utf-8"?>
<!-- Generator: Adobe Illustrator 19.0.0, SVG Export Plug-In . SVG Version: 6.00 Build 0)  -->
<svg version="1.1" id="LinkedIn" xmlns="http://www.w3.org/2000/svg" xmlns:xlink="http://www.w3.org/1999/xlink" x="0px" y="0px"
	 viewBox="-989 491 100 100" style="enable-background:new -989 491 100 100;" xml:space="preserve">
<style type="text/css">
	.st0{fill:none;stroke:#000000;stroke-miterlimit:10;}
</style>
<path d="M-952.9,521.6c0,3.1-1.9,5.6-5.6,5.6c-3.3,0-5.6-2.5-5.6-5.3c0-3.1,2.2-5.8,5.6-5.8C-955.1,516-952.9,518.5-952.9,521.6z
	 M-964,566h11.1v-36.1H-964V566z M-926.2,530.4c-5.8,0-9.2,3.3-10.6,5.6h-0.3l-0.6-4.7h-10c0,3.1,0.3,6.7,0.3,10.8V566h11.1v-19.7
	c0-1.1,0-1.9,0.3-2.8c0.8-1.9,2.2-4.4,5.3-4.4c3.9,0,5.6,3.3,5.6,7.8V566h11.1v-20.6C-914,535.2-919.3,530.4-926.2,530.4z"/>
<circle class="st0" cx="-939" cy="541" r="48"/>
</svg>
