<?xml version="1.0" encoding="utf-8"?>
<!-- Generator: Adobe Illustrator 19.0.0, SVG Export Plug-In . SVG Version: 6.00 Build 0)  -->
<svg version="1.1" xmlns="http://www.w3.org/2000/svg" xmlns:xlink="http://www.w3.org/1999/xlink" x="0px" y="0px"
	 viewBox="0 0 362 362" style="enable-background:new 0 0 362 362;" xml:space="preserve">
<style type="text/css">
	.st0{display:none;stroke:#FFFFFF;stroke-miterlimit:10;}
	.st1{fill:#FFFFFF;}
	.st2{display:none;}
	.st3{display:inline;}
	.st4{fill:none;stroke:#FFFFFF;stroke-width:2;stroke-linecap:round;stroke-linejoin:round;}
	.st5{fill:none;stroke:#FFFFFF;stroke-linecap:round;stroke-linejoin:round;stroke-miterlimit:10;}
	.st6{fill:#FFFFFF;stroke:#FFFFFF;stroke-linecap:round;stroke-linejoin:round;stroke-miterlimit:10;}
	.st7{fill:none;stroke:#FFFFFF;stroke-miterlimit:10;}
</style>
<g id="Layer_0">
	<circle id="XMLID_1_" class="st0" cx="181" cy="181" r="179.5"/>
	<g id="XMLID_2_">
		<path id="XMLID_23_" class="st1" d="M181,2c24.2,0,47.6,4.7,69.7,14.1c21.3,9,40.5,21.9,56.9,38.4c16.4,16.4,29.3,35.6,38.4,56.9
			c9.3,22.1,14.1,45.5,14.1,69.7s-4.7,47.6-14.1,69.7c-9,21.3-21.9,40.5-38.4,56.9c-16.4,16.4-35.6,29.3-56.9,38.4
			c-22.1,9.3-45.5,14.1-69.7,14.1s-47.6-4.7-69.7-14.1c-21.3-9-40.5-21.9-56.9-38.4C38,291.1,25.1,272,16.1,250.7
			C6.7,228.6,2,205.2,2,181s4.7-47.6,14.1-69.7C25.1,90,38,70.9,54.4,54.4C70.9,38,90,25.1,111.3,16.1C133.4,6.7,156.8,2,181,2
			 M181,1C81.6,1,1,81.6,1,181s80.6,180,180,180s180-80.6,180-180S280.4,1,181,1L181,1z"/>
	</g>
</g>
<g id="Layer_1" class="st2">
	<g id="XMLID_4_" class="st3">
		<g id="XMLID_614_">
			<line id="XMLID_617_" class="st4" x1="259.5" y1="121" x2="259.5" y2="178.6"/>
			<g id="XMLID_615_">
				<path id="XMLID_616_" class="st1" d="M249.9,164.9c0.5-0.3,1.1-0.2,1.4,0.3l8.2,12.9l8.2-12.9c0.3-0.5,0.9-0.6,1.4-0.3
					s0.6,0.9,0.3,1.4l-9.1,14.2c-0.2,0.3-0.5,0.5-0.8,0.5s-0.7-0.2-0.8-0.5l-9.1-14.2c-0.1-0.2-0.2-0.4-0.2-0.5
					C249.5,165.4,249.6,165.1,249.9,164.9z"/>
			</g>
		</g>
	</g>
	<g id="XMLID_602_" class="st3">
		<circle id="XMLID_610_" class="st5" cx="162.5" cy="181" r="60"/>
		<path id="XMLID_609_" class="st6" d="M208.3,194.6c13.6-21.6-0.6-56.6-36.3-65.7l0,9.4C183.3,140.7,214.8,157.8,208.3,194.6"/>
	</g>
</g>
<g id="Layer_2">
	<g id="XMLID_9_">
		<path id="XMLID_11_" class="st5" d="M233.9,202.2c12.4,0,22.5,10.1,22.5,22.5c0,12.4-10.1,22.5-22.5,22.5s-22.5-10.1-22.5-22.5
			c0-6.5,2.7-12.3,7.1-16.4C222.5,204.5,227.9,202.2,233.9,202.2z"/>
		<path id="XMLID_10_" class="st6" d="M251.1,229.8c5.1-8.1-0.2-21.2-13.6-24.6v3.5C241.7,209.6,253.5,216,251.1,229.8"/>
	</g>
	<g id="XMLID_14_">
		<path id="XMLID_13_" class="st7" d="M215.6,169.8c0-30.4-24.6-55-55-55c-30.4,0-55,24.6-55,55c0,11.7,3.6,22.5,9.8,31.4
			c0,0,4,15.9-9.8,23.6c0,0,38.4,8.6,69.9-2.1c11.3-3.2,21.1-9.9,28.2-18.8c0.2-0.2,0.3-0.4,0.4-0.6c0.8-1.1,1.6-2.2,2.4-3.3
			c0,0,0,0,0,0l0,0C212.3,191.3,215.6,181,215.6,169.8z"/>
		<path id="XMLID_12_" class="st6" d="M199.4,178.1c9.4-14.9-0.4-38.9-24.9-45.1v6.4C182.2,141,203.8,152.7,199.4,178.1"/>
	</g>
</g>
<g id="Layer_3">
</g>
</svg>
